<svg id="visual" viewBox="0 0 960 540" width="960" height="540" xmlns="http://www.w3.org/2000/svg" xmlns:xlink="http://www.w3.org/1999/xlink" version="1.1"><g stroke-width="1" stroke-linejoin="bevel"><path d="M416.7 287L306 282L395.7 371Z" fill="#18af7b" stroke="#18af7b"></path><path d="M306 282L291 355L395.7 371Z" fill="#ffcd00" stroke="#ffcd00"></path><path d="M307 465L406.7 422L395.7 371Z" fill="#d7ce17" stroke="#d7ce17"></path><path d="M567.3 380L568.3 295L416.7 287Z" fill="#008e90" stroke="#008e90"></path><path d="M416.7 287L400.7 196L306 282Z" fill="#00828e" stroke="#00828e"></path><path d="M400.7 196L286 204L306 282Z" fill="#d7ce17" stroke="#d7ce17"></path><path d="M306 282L212.3 368L291 355Z" fill="#b0cb30" stroke="#b0cb30"></path><path d="M189.3 244L212.3 368L306 282Z" fill="#18af7b" stroke="#18af7b"></path><path d="M291 355L307 465L395.7 371Z" fill="#18af7b" stroke="#18af7b"></path><path d="M236.3 451L307 465L291 355Z" fill="#00a487" stroke="#00a487"></path><path d="M212.3 368L236.3 451L291 355Z" fill="#b0cb30" stroke="#b0cb30"></path><path d="M286 204L189.3 244L306 282Z" fill="#00a487" stroke="#00a487"></path><path d="M567.3 380L416.7 287L395.7 371Z" fill="#ffcd00" stroke="#ffcd00"></path><path d="M416.7 287L546.3 153L400.7 196Z" fill="#45b86c" stroke="#45b86c"></path><path d="M415.7 540L540.3 437L406.7 422Z" fill="#00a487" stroke="#00a487"></path><path d="M406.7 422L540.3 437L395.7 371Z" fill="#8cc746" stroke="#8cc746"></path><path d="M540.3 437L567.3 380L395.7 371Z" fill="#8cc746" stroke="#8cc746"></path><path d="M212.3 540L344 540L307 465Z" fill="#69c05a" stroke="#69c05a"></path><path d="M307 465L344 540L406.7 422Z" fill="#00998e" stroke="#00998e"></path><path d="M344 540L415.7 540L406.7 422Z" fill="#00828e" stroke="#00828e"></path><path d="M189.3 244L132.7 354L212.3 368Z" fill="#00998e" stroke="#00998e"></path><path d="M212.3 368L82.7 420L236.3 451Z" fill="#008e90" stroke="#008e90"></path><path d="M400.7 196L309 91L286 204Z" fill="#b0cb30" stroke="#b0cb30"></path><path d="M286 204L191.3 144L189.3 244Z" fill="#18af7b" stroke="#18af7b"></path><path d="M428.7 78L309 91L400.7 196Z" fill="#d7ce17" stroke="#d7ce17"></path><path d="M99.7 197L125.7 258L189.3 244Z" fill="#008e90" stroke="#008e90"></path><path d="M189.3 244L125.7 258L132.7 354Z" fill="#00828e" stroke="#00828e"></path><path d="M309 91L191.3 144L286 204Z" fill="#69c05a" stroke="#69c05a"></path><path d="M568.3 295L546.3 153L416.7 287Z" fill="#00a487" stroke="#00a487"></path><path d="M546.3 153L428.7 78L400.7 196Z" fill="#ffcd00" stroke="#ffcd00"></path><path d="M567.3 380L612 307L568.3 295Z" fill="#69c05a" stroke="#69c05a"></path><path d="M568.3 295L606 153L546.3 153Z" fill="#18af7b" stroke="#18af7b"></path><path d="M654 413L612 307L567.3 380Z" fill="#00a487" stroke="#00a487"></path><path d="M102.7 540L212.3 540L236.3 451Z" fill="#b0cb30" stroke="#b0cb30"></path><path d="M236.3 451L212.3 540L307 465Z" fill="#00a487" stroke="#00a487"></path><path d="M415.7 540L530.3 540L540.3 437Z" fill="#b0cb30" stroke="#b0cb30"></path><path d="M540.3 437L654 413L567.3 380Z" fill="#00828e" stroke="#00828e"></path><path d="M191.3 144L99.7 197L189.3 244Z" fill="#b0cb30" stroke="#b0cb30"></path><path d="M0 324L82.7 420L132.7 354Z" fill="#ffcd00" stroke="#ffcd00"></path><path d="M309 91L228.3 62L191.3 144Z" fill="#8cc746" stroke="#8cc746"></path><path d="M191.3 144L111.7 121L99.7 197Z" fill="#b0cb30" stroke="#b0cb30"></path><path d="M330 0L228.3 62L309 91Z" fill="#ffcd00" stroke="#ffcd00"></path><path d="M0 324L132.7 354L125.7 258Z" fill="#00998e" stroke="#00998e"></path><path d="M132.7 354L82.7 420L212.3 368Z" fill="#18af7b" stroke="#18af7b"></path><path d="M612 307L606 153L568.3 295Z" fill="#d7ce17" stroke="#d7ce17"></path><path d="M546.3 153L493.3 53L428.7 78Z" fill="#18af7b" stroke="#18af7b"></path><path d="M601 0L493.3 53L546.3 153Z" fill="#d7ce17" stroke="#d7ce17"></path><path d="M428.7 78L330 0L309 91Z" fill="#45b86c" stroke="#45b86c"></path><path d="M631 540L654 413L540.3 437Z" fill="#b0cb30" stroke="#b0cb30"></path><path d="M612 307L711.7 208L606 153Z" fill="#69c05a" stroke="#69c05a"></path><path d="M654 413L676 326L612 307Z" fill="#18af7b" stroke="#18af7b"></path><path d="M228.3 62L111.7 121L191.3 144Z" fill="#00a487" stroke="#00a487"></path><path d="M408.7 0L330 0L428.7 78Z" fill="#ffcd00" stroke="#ffcd00"></path><path d="M228.3 62L207.3 0L111.7 121Z" fill="#d7ce17" stroke="#d7ce17"></path><path d="M493.3 53L408.7 0L428.7 78Z" fill="#69c05a" stroke="#69c05a"></path><path d="M82.7 420L102.7 540L236.3 451Z" fill="#b0cb30" stroke="#b0cb30"></path><path d="M530.3 540L631 540L540.3 437Z" fill="#00828e" stroke="#00828e"></path><path d="M654 413L771.7 352L676 326Z" fill="#b0cb30" stroke="#b0cb30"></path><path d="M330 0L207.3 0L228.3 62Z" fill="#69c05a" stroke="#69c05a"></path><path d="M601 0L515.3 0L493.3 53Z" fill="#d7ce17" stroke="#d7ce17"></path><path d="M493.3 53L515.3 0L408.7 0Z" fill="#00a487" stroke="#00a487"></path><path d="M0 263L0 324L125.7 258Z" fill="#69c05a" stroke="#69c05a"></path><path d="M82.7 420L0 468L102.7 540Z" fill="#ffcd00" stroke="#ffcd00"></path><path d="M0 263L125.7 258L99.7 197Z" fill="#18af7b" stroke="#18af7b"></path><path d="M0 157L0 263L99.7 197Z" fill="#45b86c" stroke="#45b86c"></path><path d="M676 326L711.7 208L612 307Z" fill="#00998e" stroke="#00998e"></path><path d="M606 153L601 0L546.3 153Z" fill="#69c05a" stroke="#69c05a"></path><path d="M755.7 258L711.7 208L676 326Z" fill="#18af7b" stroke="#18af7b"></path><path d="M631 540L713.7 466L654 413Z" fill="#18af7b" stroke="#18af7b"></path><path d="M0 324L0 468L82.7 420Z" fill="#00a487" stroke="#00a487"></path><path d="M707.7 88L662 65L606 153Z" fill="#008e90" stroke="#008e90"></path><path d="M0 66L0 157L111.7 121Z" fill="#18af7b" stroke="#18af7b"></path><path d="M111.7 121L0 157L99.7 197Z" fill="#18af7b" stroke="#18af7b"></path><path d="M662 65L601 0L606 153Z" fill="#18af7b" stroke="#18af7b"></path><path d="M771.7 352L755.7 258L676 326Z" fill="#69c05a" stroke="#69c05a"></path><path d="M711.7 208L707.7 88L606 153Z" fill="#00a487" stroke="#00a487"></path><path d="M713.7 466L771.7 352L654 413Z" fill="#00998e" stroke="#00998e"></path><path d="M829.3 129L707.7 88L711.7 208Z" fill="#45b86c" stroke="#45b86c"></path><path d="M662 65L729.7 0L601 0Z" fill="#00998e" stroke="#00998e"></path><path d="M0 468L0 540L102.7 540Z" fill="#18af7b" stroke="#18af7b"></path><path d="M631 540L724.7 540L713.7 466Z" fill="#ffcd00" stroke="#ffcd00"></path><path d="M836.3 464L830.3 369L771.7 352Z" fill="#00998e" stroke="#00998e"></path><path d="M207.3 0L66.7 0L111.7 121Z" fill="#00998e" stroke="#00998e"></path><path d="M66.7 0L0 66L111.7 121Z" fill="#45b86c" stroke="#45b86c"></path><path d="M771.7 352L846.3 285L755.7 258Z" fill="#008e90" stroke="#008e90"></path><path d="M820.3 0L729.7 0L707.7 88Z" fill="#45b86c" stroke="#45b86c"></path><path d="M836.3 464L771.7 352L713.7 466Z" fill="#8cc746" stroke="#8cc746"></path><path d="M66.7 0L0 0L0 66Z" fill="#008e90" stroke="#008e90"></path><path d="M829.3 129L711.7 208L853.3 193Z" fill="#00828e" stroke="#00828e"></path><path d="M707.7 88L729.7 0L662 65Z" fill="#00a487" stroke="#00a487"></path><path d="M830.3 369L846.3 285L771.7 352Z" fill="#00a487" stroke="#00a487"></path><path d="M724.7 540L836.3 464L713.7 466Z" fill="#18af7b" stroke="#18af7b"></path><path d="M960 346L960 297L846.3 285Z" fill="#008e90" stroke="#008e90"></path><path d="M853.3 193L711.7 208L755.7 258Z" fill="#00a487" stroke="#00a487"></path><path d="M960 212L853.3 193L846.3 285Z" fill="#00828e" stroke="#00828e"></path><path d="M846.3 285L853.3 193L755.7 258Z" fill="#b0cb30" stroke="#b0cb30"></path><path d="M724.7 540L839.3 540L836.3 464Z" fill="#45b86c" stroke="#45b86c"></path><path d="M960 346L846.3 285L830.3 369Z" fill="#ffcd00" stroke="#ffcd00"></path><path d="M960 73L820.3 0L829.3 129Z" fill="#00828e" stroke="#00828e"></path><path d="M829.3 129L820.3 0L707.7 88Z" fill="#45b86c" stroke="#45b86c"></path><path d="M960 346L830.3 369L960 462Z" fill="#00998e" stroke="#00998e"></path><path d="M853.3 193L960 73L829.3 129Z" fill="#ffcd00" stroke="#ffcd00"></path><path d="M960 462L830.3 369L836.3 464Z" fill="#00828e" stroke="#00828e"></path><path d="M960 297L960 212L846.3 285Z" fill="#d7ce17" stroke="#d7ce17"></path><path d="M839.3 540L960 462L836.3 464Z" fill="#00a487" stroke="#00a487"></path><path d="M839.3 540L960 540L960 462Z" fill="#d7ce17" stroke="#d7ce17"></path><path d="M960 212L960 73L853.3 193Z" fill="#00998e" stroke="#00998e"></path><path d="M960 73L960 0L820.3 0Z" fill="#69c05a" stroke="#69c05a"></path></g></svg>